<svg xmlns="http://www.w3.org/2000/svg" viewBox="0 0 1200 675" width="1200" height="675" role="img" xmlns:c2pa="http://c2pa.org/manifest"><metadata><c2pa:manifest>AAAWgmp1bWIAAAAeanVtZGMycGEAEQAQgAAAqgA4m3EDYzJwYQAAABZcanVtYgAAAEdqdW1kYzJtYQARABCAAACqADibcQN1cm46YzJwYToxZjU4MWQyYy0wOGM5LTRkYWYtODk0ZS02OTNiNGFhMTc2OGUAAAADl2p1bWIAAAApanVtZGMyYXMAEQAQgAAAqgA4m3EDYzJwYS5hc3NlcnRpb25zAAAAALxqdW1iAAAARGp1bWRjYm9yABEAEIAAAKoAOJtxE2MycGEuaW5ncmVkaWVudC52MwAAAAAYYzJzaFtsq/j3AFr89LeT/JSJf5AAAABwY2JvcqNpZGM6Zm9ybWF0bWltYWdlL3N2Zyt4bWxqaW5zdGFuY2VJRHgseG1wOmlpZDo3NDlhYmQ5Yi0yNmYzLTQ0OTMtODRiYy04MWI5Y2NkZWQ1ZTBscmVsYXRpb25zaGlwaHBhcmVudE9mAAAB4mp1bWIAAABBanVtZGNib3IAEQAQgAAAqgA4m3ETYzJwYS5hY3Rpb25zLnYyAAAAABhjMnNosOM2sto3+UVDt00FLmY3VgAAAZljYm9yomdhY3Rpb25zgqJmYWN0aW9ua2MycGEub3BlbmVkanBhcmFtZXRlcnOha2luZ3JlZGllbnRzgaJjdXJseC1zZWxmI2p1bWJmPWMycGEuYXNzZXJ0aW9ucy9jMnBhLmluZ3JlZGllbnQudjNkaGFzaFggQ6155MRjip+Ou7Q5HbHFXDfJsEYQVAmh9ZffqpTQgfakZmFjdGlvbngdY29tLmFudGhyb3BpYy5jbGF1ZGUucHJvdmlkZWRqcGFyYW1ldGVyc6F4H2NvbS5hbnRocm9waWMub3JpZ2luLWNvbmZpZGVuY2VndW5rbm93bmtkZXNjcmlwdGlvbnhmQ2xhdWRlIHByb3ZpZGVkIHRoaXMgZmlsZSBhdCB0aGUgcmVxdWVzdCBvZiBhIHVzZXIgYW5kIG1heSBoYXZlIGNyZWF0ZWQgb3IgbW9kaWZpZWQgdGhlIGZpbGUgY29udGVudHMubXNvZnR3YXJlQWdlbnShZG5hbWVmQ2xhdWRlcmFsbEFjdGlvbnNJbmNsdWRlZPUAAADIanVtYgAAAEBqdW1kY2JvcgARABCAAACqADibcRNjMnBhLmhhc2guZGF0YQAAAAAYYzJzaHF2IDWixaoDoz/w4cUfrZsAAACAY2JvcqVjYWxnZnNoYTI1NmNwYWRNAAAAAAAAAAAAAAAAAGRoYXNoWCBxHR2+CiF2LwRxuzvnKcwqDDE3CbgPTgh64bgzVd58GmRuYW1lbmp1bWJmIG1hbmlmZXN0amV4Y2x1c2lvbnOBomVzdGFydBijZmxlbmd0aBkeBAAAAj5qdW1iAAAAJ2p1bWRjMmNsABEAEIAAAKoAOJtxA2MycGEuY2xhaW0udjIAAAACD2Nib3KlY2FsZ2ZzaGEyNTZpc2lnbmF0dXJleE1zZWxmI2p1bWJmPS9jMnBhL3VybjpjMnBhOjFmNTgxZDJjLTA4YzktNGRhZi04OTRlLTY5M2I0YWExNzY4ZS9jMnBhLnNpZ25hdHVyZWppbnN0YW5jZUlEeCx4bXA6aWlkOjA2M2Q5YzBlLWViNjItNDBhMy1iMWVlLThlYTcxZjc1NjYxYnJjcmVhdGVkX2Fzc2VydGlvbnODomN1cmx4LXNlbGYjanVtYmY9YzJwYS5hc3NlcnRpb25zL2MycGEuaW5ncmVkaWVudC52M2RoYXNoWCBDrXnkxGOKn467tDkdscVcN8mwRhBUCaH1l9+qlNCB9qJjdXJseCpzZWxmI2p1bWJmPWMycGEuYXNzZXJ0aW9ucy9jMnBhLmFjdGlvbnMudjJkaGFzaFggZcAjVrYPsU+4nVjuV4Tr8eXuEUuxAQbWawcspMH7A2WiY3VybHgpc2VsZiNqdW1iZj1jMnBhLmFzc2VydGlvbnMvYzJwYS5oYXNoLmRhdGFkaGFzaFggpzFAN84iT1dB/0Sau6eTcrPFDKyFdBm2+wxJoFtekE10Y2xhaW1fZ2VuZXJhdG9yX2luZm+jZG5hbWVvQW50aHJvcGljIEZpbGVzZ3ZlcnNpb25lMS4wLjBrc3BlY1ZlcnNpb25lMi40LjAAABA4anVtYgAAAChqdW1kYzJjcwARABCAAACqADibcQNjMnBhLnNpZ25hdHVyZQAAABAIY2JvctKEWQISogEmGCFZAgowggIGMIIBjaADAgECAhRA5aAK7sI50L64g/oGQgU9Z1UTADAKBggqhkjOPQQDAzBJMRcwFQYDVQQKEw5BbnRocm9waWMsIFBCQzEuMCwGA1UEAxMlQW50aHJvcGljIENvbnRlbnQgQ3JlZGVudGlhbHMgUm9vdCBDQTAeFw0yNjA4MDcxODQzNTZaFw0yODA4MDYxOTQzNTZaMEQxFzAVBgNVBAoTDkFudGhyb3BpYywgUEJDMSkwJwYDVQQDEyBBbnRocm9waWMgQ2xhdWRlIENvbnRlbnQgU2lnbmluZzBZMBMGByqGSM49AgEGCCqGSM49AwEHA0IABJh6CmvLUBgFFNU0vUKlOVtE6djd17L5SuwX0LemFisBM3dkd/3cyjxFA3Qo5S46fX0/ihY0VZ7mfb9KF703t5OjWDBWMA4GA1UdDwEB/wQEAwIHgDAVBgNVHSUEDjAMBgorBgEEAYPoXgIBMAwGA1UdEwEB/wQCMAAwHwYDVR0jBBgwFoAUzlHiBIFOZFsj+OPEz5o+nMHXXMIwCgYIKoZIzj0EAwMDZwAwZAIwMXMdFJ4BetLLVY7ORuE9noqbbAZOZn/aArXyTwFAZfKrPzxF2vPoJNf1+UCdg1XGAjBwX1zd9WGqYkqmL5SFqw1QySjr1zJfpJM9+1rdDwSPLMOPOjKuiXjoU/pUUeG9RwmhY3BhZFkNngAAAAAAAAAAAAAAAAAAAAAAAAAAAAAAAAAAAAAAAAAAAAAAAAAAAAAAAAAAAAAAAAAAAAAAAAAAAAAAAAAAAAAAAAAAAAAAAAAAAAAAAAAAAAAAAAAAAAAAAAAAAAAAAAAAAAAAAAAAAAAAAAAAAAAAAAAAAAAAAAAAAAAAAAAAAAAAAAAAAAAAAAAAAAAAAAAAAAAAAAAAAAAAAAAAAAAAAAAAAAAAAAAAAAAAAAAAAAAAAAAAAAAAAAAAAAAAAAAAAAAAAAAAAAAAAAAAAAAAAAAAAAAAAAAAAAAAAAAAAAAAAAAAAAAAAAAAAAAAAAAAAAAAAAAAAAAAAAAAAAAAAAAAAAAAAAAAAAAAAAAAAAAAAAAAAAAAAAAAAAAAAAAAAAAAAAAAAAAAAAAAAAAAAAAAAAAAAAAAAAAAAAAAAAAAAAAAAAAAAAAAAAAAAAAAAAAAAAAAAAAAAAAAAAAAAAAAAAAAAAAAAAAAAAAAAAAAAAAAAAAAAAAAAAAAAAAAAAAAAAAAAAAAAAAAAAAAAAAAAAAAAAAAAAAAAAAAAAAAAAAAAAAAAAAAAAAAAAAAAAAAAAAAAAAAAAAAAAAAAAAAAAAAAAAAAAAAAAAAAAAAAAAAAAAAAAAAAAAAAAAAAAAAAAAAAAAAAAAAAAAAAAAAAAAAAAAAAAAAAAAAAAAAAAAAAAAAAAAAAAAAAAAAAAAAAAAAAAAAAAAAAAAAAAAAAAAAAAAAAAAAAAAAAAAAAAAAAAAAAAAAAAAAAAAAAAAAAAAAAAAAAAAAAAAAAAAAAAAAAAAAAAAAAAAAAAAAAAAAAAAAAAAAAAAAAAAAAAAAAAAAAAAAAAAAAAAAAAAAAAAAAAAAAAAAAAAAAAAAAAAAAAAAAAAAAAAAAAAAAAAAAAAAAAAAAAAAAAAAAAAAAAAAAAAAAAAAAAAAAAAAAAAAAAAAAAAAAAAAAAAAAAAAAAAAAAAAAAAAAAAAAAAAAAAAAAAAAAAAAAAAAAAAAAAAAAAAAAAAAAAAAAAAAAAAAAAAAAAAAAAAAAAAAAAAAAAAAAAAAAAAAAAAAAAAAAAAAAAAAAAAAAAAAAAAAAAAAAAAAAAAAAAAAAAAAAAAAAAAAAAAAAAAAAAAAAAAAAAAAAAAAAAAAAAAAAAAAAAAAAAAAAAAAAAAAAAAAAAAAAAAAAAAAAAAAAAAAAAAAAAAAAAAAAAAAAAAAAAAAAAAAAAAAAAAAAAAAAAAAAAAAAAAAAAAAAAAAAAAAAAAAAAAAAAAAAAAAAAAAAAAAAAAAAAAAAAAAAAAAAAAAAAAAAAAAAAAAAAAAAAAAAAAAAAAAAAAAAAAAAAAAAAAAAAAAAAAAAAAAAAAAAAAAAAAAAAAAAAAAAAAAAAAAAAAAAAAAAAAAAAAAAAAAAAAAAAAAAAAAAAAAAAAAAAAAAAAAAAAAAAAAAAAAAAAAAAAAAAAAAAAAAAAAAAAAAAAAAAAAAAAAAAAAAAAAAAAAAAAAAAAAAAAAAAAAAAAAAAAAAAAAAAAAAAAAAAAAAAAAAAAAAAAAAAAAAAAAAAAAAAAAAAAAAAAAAAAAAAAAAAAAAAAAAAAAAAAAAAAAAAAAAAAAAAAAAAAAAAAAAAAAAAAAAAAAAAAAAAAAAAAAAAAAAAAAAAAAAAAAAAAAAAAAAAAAAAAAAAAAAAAAAAAAAAAAAAAAAAAAAAAAAAAAAAAAAAAAAAAAAAAAAAAAAAAAAAAAAAAAAAAAAAAAAAAAAAAAAAAAAAAAAAAAAAAAAAAAAAAAAAAAAAAAAAAAAAAAAAAAAAAAAAAAAAAAAAAAAAAAAAAAAAAAAAAAAAAAAAAAAAAAAAAAAAAAAAAAAAAAAAAAAAAAAAAAAAAAAAAAAAAAAAAAAAAAAAAAAAAAAAAAAAAAAAAAAAAAAAAAAAAAAAAAAAAAAAAAAAAAAAAAAAAAAAAAAAAAAAAAAAAAAAAAAAAAAAAAAAAAAAAAAAAAAAAAAAAAAAAAAAAAAAAAAAAAAAAAAAAAAAAAAAAAAAAAAAAAAAAAAAAAAAAAAAAAAAAAAAAAAAAAAAAAAAAAAAAAAAAAAAAAAAAAAAAAAAAAAAAAAAAAAAAAAAAAAAAAAAAAAAAAAAAAAAAAAAAAAAAAAAAAAAAAAAAAAAAAAAAAAAAAAAAAAAAAAAAAAAAAAAAAAAAAAAAAAAAAAAAAAAAAAAAAAAAAAAAAAAAAAAAAAAAAAAAAAAAAAAAAAAAAAAAAAAAAAAAAAAAAAAAAAAAAAAAAAAAAAAAAAAAAAAAAAAAAAAAAAAAAAAAAAAAAAAAAAAAAAAAAAAAAAAAAAAAAAAAAAAAAAAAAAAAAAAAAAAAAAAAAAAAAAAAAAAAAAAAAAAAAAAAAAAAAAAAAAAAAAAAAAAAAAAAAAAAAAAAAAAAAAAAAAAAAAAAAAAAAAAAAAAAAAAAAAAAAAAAAAAAAAAAAAAAAAAAAAAAAAAAAAAAAAAAAAAAAAAAAAAAAAAAAAAAAAAAAAAAAAAAAAAAAAAAAAAAAAAAAAAAAAAAAAAAAAAAAAAAAAAAAAAAAAAAAAAAAAAAAAAAAAAAAAAAAAAAAAAAAAAAAAAAAAAAAAAAAAAAAAAAAAAAAAAAAAAAAAAAAAAAAAAAAAAAAAAAAAAAAAAAAAAAAAAAAAAAAAAAAAAAAAAAAAAAAAAAAAAAAAAAAAAAAAAAAAAAAAAAAAAAAAAAAAAAAAAAAAAAAAAAAAAAAAAAAAAAAAAAAAAAAAAAAAAAAAAAAAAAAAAAAAAAAAAAAAAAAAAAAAAAAAAAAAAAAAAAAAAAAAAAAAAAAAAAAAAAAAAAAAAAAAAAAAAAAAAAAAAAAAAAAAAAAAAAAAAAAAAAAAAAAAAAAAAAAAAAAAAAAAAAAAAAAAAAAAAAAAAAAAAAAAAAAAAAAAAAAAAAAAAAAAAAAAAAAAAAAAAAAAAAAAAAAAAAAAAAAAAAAAAAAAAAAAAAAAAAAAAAAAAAAAAAAAAAAAAAAAAAAAAAAAAAAAAAAAAAAAAAAAAAAAAAAAAAAAAAAAAAAAAAAAAAAAAAAAAAAAAAAAAAAAAAAAAAAAAAAAAAAAAAAAAAAAAAAAAAAAAAAAAAAAAAAAAAAAAAAAAAAAAAAAAAAAAAAAAAAAAAAAAAAAAAAAAAAAAAAAAAAAAAAAAAAAAAAAAAAAAAAAAAAAAAAAAAAAAAAAAAAAAAAAAAAAAAAAAAAAAAAAAAAAAAAAAAAAAAAAAAAAAAAAAAAAAAAAAAAAAAAAAAAAAAAAAAAAAAAAAAAAAAAAAAAAAAAAAAAAAAAAAAAAAAAAAAAAAAAAAAAAAAAAAAAAAAAAAAAAAAAAAAAAAAAAAAAAAAAAAAAAAAAAAAAAAAAAAAAAAAAAAAAAAAAAAAAAAAAAAAAAAAAAAAAAAAAAAAAAAAAAAAAAAAAAAAAAAAAAAAAAAAAAAAAAAAAAAAAAAAAAAAAAAAAAAAAAAAAAAAAAAAAAAAAAAAAAAAAAAAAAAAAAAAAAAAAAAAAAAAAAAAAAAAAAAAAAAAAAAAAAAAAAAAAAAAAAAAAAAAAAAAAAAAAAAAAAAAAAAAAAAAAAAAAAAAAAAAAAAAAAAAAAAAAAAAAAAAAAAAAAAAAAAAAAAAAAAAAAAAAAAAAAAAAAAAAAAAAAAAAAAAAAAAAAAAAAAAAAAAAAAAAAAAAAAAAAAAAAAAAAAAAAAAAAAAAAAAAAAAAAAAAAAAAAAAAAAAAAAAAAAAAAAAAAAAAAAAAAAAAAAAAAAAAAAAAAAAAAAAAAAAAAAAAAAAAAAAAAAAAAAAAAAAAAAAAAAAAAAAAAAAAAAAAAAAAAAAAAAAAAAAAAAAAAAAAAAAAAAAAAAAAAAAAAAAAAAAAAAAAAAAAAAAAAAAAAAAAAAAAAAAAAAAAAAAAAAAAAAAAAAAAAAAAAAAAAAAAAAAAAAAAAAAAAAAAAAAAAAAAAAAAAAAAAAAAAAAAAAAAAAAAAAAAAAAAAAAAAAAAAAAAAAAAAAAAAAAAAAAAAAAAAAAAAAAAAAAAAAAAAAAAAAAAAAAAAAAAAAAAAAAAAAAAAAAAAAAAAAAAAAAAAAAAAAAAAAAAAAAAAAAAAAAAAAAAAAAAAAAAAAAAAAAAAAAAAAAAAAAAAAAAAAAAAAAAAAAAAAAAAAAAAAAAAAAAAAAAAAAAAAAAAAAAAAAAAAAAAAAAAAAAAAAAAAAAAAAAAAAAAAAAAAAAAAAAAAAAAAAAAAAAAAAAAAAAAAAAAAAAAAAAAAAAAAAAAAAAAAAAAAAAAAAAAAAAAAAAAAAAAAAAAAAAAAAAAAAAAAAAAAAAAAAAAAAAAAAAAAAAAAAAAAAAAAAAAAAAAAAAAAAAAAAAAAAAAAAAAAAAAAAAAAAAAAAAAAAAAAAAAAAAAAAAAAAAAAAAAAAAAAAAAAAAAAAAAAAAAAAAAAAAAAAAAAAAAAAAAAAAAAAAAAAAAAAAAAAAAAAAAAAAAAAAAAAAAAAAAAAAAAAAAAAAAAAAAAAAAAAAAAAAAAAAAAAAAAAAAAAAAAAAAAAAAAAAAAAAAAAAAAAAAAAAAAAAAAAAAAAAAAAAAAAAAAAAAAAAAAAAAAAAAAAAAAAAAAAAAAAAAAAAAAAAAAAAPZYQODmqK2Ue+F4Gw5SD8WXWfHhCGb8Nm4iY+wkp0DjcJAbKQpFh2PlsMy+Hm5b6rVIs9p1f5oQFp7/FqHJipji86Q=</c2pa:manifest></metadata><defs>
<linearGradient id="sky" x1="0" y1="0" x2="0" y2="1">
  <stop offset="0" stop-color="#120a24"/><stop offset="1" stop-color="#03020a"/>
</linearGradient>
<radialGradient id="glow" cx="50%" cy="42%" r="60%">
  <stop offset="0" stop-color="#b06bff" stop-opacity=".38"/>
  <stop offset="1" stop-color="#b06bff" stop-opacity="0"/>
</radialGradient>
<radialGradient id="vig" cx="50%" cy="50%" r="75%">
  <stop offset=".55" stop-color="#000" stop-opacity="0"/>
  <stop offset="1" stop-color="#000" stop-opacity=".72"/>
</radialGradient>
<pattern id="scan" width="4" height="4" patternUnits="userSpaceOnUse">
  <rect width="4" height="2" fill="#ffffff"/>
</pattern>
<pattern id="grid" width="48" height="48" patternUnits="userSpaceOnUse">
  <path d="M48 0 L0 0 0 48" fill="none" stroke="#b06bff" stroke-width="1" opacity=".18"/>
</pattern>
</defs><rect width="1200" height="675" fill="url(#sky)"/><circle cx="285.6" cy="283.0" r="0.95" fill="#cfd8ff" opacity="0.62"/><circle cx="750.9" cy="34.1" r="0.42" fill="#cfd8ff" opacity="0.79"/><circle cx="311.2" cy="121.9" r="1.89" fill="#cfd8ff" opacity="0.53"/><circle cx="1003.8" cy="247.7" r="1.36" fill="#cfd8ff" opacity="0.31"/><circle cx="761.8" cy="451.4" r="1.18" fill="#cfd8ff" opacity="0.72"/><circle cx="805.7" cy="33.3" r="1.54" fill="#cfd8ff" opacity="0.61"/><circle cx="361.5" cy="16.1" r="1.70" fill="#cfd8ff" opacity="0.53"/><circle cx="862.6" cy="457.0" r="1.47" fill="#cfd8ff" opacity="0.84"/><circle cx="474.0" cy="416.5" r="1.07" fill="#cfd8ff" opacity="0.85"/><circle cx="1054.6" cy="50.7" r="0.60" fill="#cfd8ff" opacity="0.35"/><circle cx="1158.6" cy="226.8" r="1.34" fill="#cfd8ff" opacity="0.41"/><circle cx="608.7" cy="200.7" r="0.93" fill="#cfd8ff" opacity="0.61"/><circle cx="701.1" cy="470.2" r="1.42" fill="#cfd8ff" opacity="0.85"/><circle cx="1027.7" cy="515.3" r="1.41" fill="#cfd8ff" opacity="0.31"/><circle cx="1032.8" cy="501.6" r="1.76" fill="#cfd8ff" opacity="0.60"/><circle cx="856.6" cy="109.8" r="1.65" fill="#cfd8ff" opacity="0.60"/><circle cx="341.9" cy="33.0" r="1.68" fill="#cfd8ff" opacity="0.89"/><circle cx="106.2" cy="416.3" r="1.02" fill="#cfd8ff" opacity="0.31"/><circle cx="352.7" cy="399.8" r="1.71" fill="#cfd8ff" opacity="0.23"/><circle cx="737.4" cy="23.4" r="1.48" fill="#cfd8ff" opacity="0.43"/><circle cx="1057.1" cy="509.9" r="1.16" fill="#cfd8ff" opacity="0.90"/><circle cx="371.6" cy="40.0" r="1.30" fill="#cfd8ff" opacity="0.22"/><circle cx="236.9" cy="212.1" r="1.32" fill="#cfd8ff" opacity="0.31"/><circle cx="50.9" cy="451.2" r="0.87" fill="#cfd8ff" opacity="0.87"/><circle cx="1076.0" cy="196.5" r="1.09" fill="#cfd8ff" opacity="0.56"/><circle cx="772.7" cy="309.7" r="1.24" fill="#cfd8ff" opacity="0.63"/><circle cx="1128.7" cy="263.7" r="1.05" fill="#cfd8ff" opacity="0.70"/><circle cx="285.2" cy="156.6" r="1.87" fill="#cfd8ff" opacity="0.56"/><circle cx="658.1" cy="6.0" r="1.02" fill="#cfd8ff" opacity="0.61"/><circle cx="24.1" cy="320.2" r="1.35" fill="#cfd8ff" opacity="0.24"/><circle cx="752.8" cy="242.5" r="1.42" fill="#cfd8ff" opacity="0.45"/><circle cx="848.3" cy="383.8" r="0.43" fill="#cfd8ff" opacity="0.24"/><circle cx="811.2" cy="500.9" r="0.78" fill="#cfd8ff" opacity="0.52"/><circle cx="711.2" cy="166.4" r="0.95" fill="#cfd8ff" opacity="0.42"/><circle cx="443.0" cy="309.7" r="0.85" fill="#cfd8ff" opacity="0.46"/><circle cx="926.7" cy="14.0" r="1.25" fill="#cfd8ff" opacity="0.71"/><circle cx="372.0" cy="115.7" r="1.61" fill="#cfd8ff" opacity="0.37"/><circle cx="224.9" cy="226.3" r="1.45" fill="#cfd8ff" opacity="0.27"/><circle cx="386.4" cy="173.6" r="1.65" fill="#cfd8ff" opacity="0.51"/><circle cx="1026.6" cy="88.0" r="0.91" fill="#cfd8ff" opacity="0.66"/><circle cx="1061.9" cy="234.6" r="0.74" fill="#cfd8ff" opacity="0.28"/><circle cx="635.6" cy="99.2" r="1.61" fill="#cfd8ff" opacity="0.79"/><circle cx="220.3" cy="144.9" r="1.61" fill="#cfd8ff" opacity="0.65"/><circle cx="967.5" cy="179.5" r="0.59" fill="#cfd8ff" opacity="0.40"/><circle cx="952.6" cy="141.0" r="0.92" fill="#cfd8ff" opacity="0.49"/><circle cx="503.7" cy="213.0" r="1.78" fill="#cfd8ff" opacity="0.31"/><circle cx="5.6" cy="490.5" r="1.72" fill="#cfd8ff" opacity="0.89"/><circle cx="521.2" cy="494.1" r="1.79" fill="#cfd8ff" opacity="0.36"/><circle cx="894.6" cy="435.1" r="1.39" fill="#cfd8ff" opacity="0.56"/><circle cx="346.9" cy="177.4" r="0.74" fill="#cfd8ff" opacity="0.25"/><circle cx="706.4" cy="149.2" r="1.62" fill="#cfd8ff" opacity="0.23"/><circle cx="1084.3" cy="360.7" r="1.79" fill="#cfd8ff" opacity="0.83"/><circle cx="1079.6" cy="300.0" r="0.42" fill="#cfd8ff" opacity="0.72"/><circle cx="206.2" cy="155.9" r="1.39" fill="#cfd8ff" opacity="0.57"/><circle cx="496.5" cy="488.3" r="1.32" fill="#cfd8ff" opacity="0.44"/><circle cx="303.0" cy="448.1" r="1.12" fill="#cfd8ff" opacity="0.75"/><circle cx="422.2" cy="102.6" r="1.20" fill="#cfd8ff" opacity="0.77"/><circle cx="205.6" cy="411.7" r="1.78" fill="#cfd8ff" opacity="0.76"/><circle cx="988.2" cy="3.9" r="1.34" fill="#cfd8ff" opacity="0.80"/><circle cx="59.9" cy="141.1" r="0.80" fill="#cfd8ff" opacity="0.57"/><circle cx="507.6" cy="245.9" r="1.56" fill="#cfd8ff" opacity="0.20"/><circle cx="65.8" cy="66.0" r="0.59" fill="#cfd8ff" opacity="0.25"/><circle cx="1169.6" cy="444.3" r="0.53" fill="#cfd8ff" opacity="0.55"/><circle cx="379.1" cy="163.6" r="0.93" fill="#cfd8ff" opacity="0.65"/><circle cx="703.9" cy="187.6" r="0.69" fill="#cfd8ff" opacity="0.43"/><circle cx="148.5" cy="288.9" r="1.47" fill="#cfd8ff" opacity="0.47"/><circle cx="95.9" cy="92.8" r="0.96" fill="#cfd8ff" opacity="0.62"/><circle cx="939.1" cy="197.7" r="1.60" fill="#cfd8ff" opacity="0.64"/><circle cx="517.9" cy="193.7" r="1.14" fill="#cfd8ff" opacity="0.69"/><circle cx="504.6" cy="360.9" r="1.09" fill="#cfd8ff" opacity="0.37"/><circle cx="643.0" cy="361.5" r="0.51" fill="#cfd8ff" opacity="0.50"/><circle cx="511.0" cy="457.4" r="1.80" fill="#cfd8ff" opacity="0.46"/><circle cx="1077.4" cy="411.3" r="0.79" fill="#cfd8ff" opacity="0.52"/><circle cx="147.8" cy="422.9" r="1.39" fill="#cfd8ff" opacity="0.82"/><circle cx="951.0" cy="347.1" r="1.50" fill="#cfd8ff" opacity="0.59"/><circle cx="123.8" cy="305.6" r="0.41" fill="#cfd8ff" opacity="0.30"/><circle cx="929.2" cy="23.0" r="0.54" fill="#cfd8ff" opacity="0.27"/><circle cx="1056.6" cy="93.2" r="0.44" fill="#cfd8ff" opacity="0.79"/><circle cx="145.5" cy="438.9" r="1.41" fill="#cfd8ff" opacity="0.79"/><circle cx="1142.9" cy="301.1" r="1.60" fill="#cfd8ff" opacity="0.23"/><circle cx="920.9" cy="265.9" r="1.47" fill="#cfd8ff" opacity="0.27"/><circle cx="898.8" cy="486.0" r="0.49" fill="#cfd8ff" opacity="0.43"/><circle cx="676.8" cy="430.6" r="0.76" fill="#cfd8ff" opacity="0.33"/><circle cx="300.0" cy="320.3" r="1.53" fill="#cfd8ff" opacity="0.48"/><circle cx="441.0" cy="206.3" r="0.93" fill="#cfd8ff" opacity="0.49"/><circle cx="99.9" cy="260.2" r="1.86" fill="#cfd8ff" opacity="0.49"/><circle cx="896.9" cy="83.5" r="1.44" fill="#cfd8ff" opacity="0.73"/><circle cx="808.6" cy="268.9" r="1.13" fill="#cfd8ff" opacity="0.65"/><circle cx="1076.9" cy="77.7" r="0.54" fill="#cfd8ff" opacity="0.72"/><circle cx="1099.9" cy="269.0" r="1.06" fill="#cfd8ff" opacity="0.70"/><circle cx="223.3" cy="139.0" r="0.70" fill="#cfd8ff" opacity="0.61"/><circle cx="377.8" cy="120.8" r="1.44" fill="#cfd8ff" opacity="0.87"/><circle cx="355.0" cy="366.8" r="1.02" fill="#cfd8ff" opacity="0.80"/><circle cx="701.6" cy="138.9" r="0.73" fill="#cfd8ff" opacity="0.22"/><circle cx="575.4" cy="199.0" r="0.66" fill="#cfd8ff" opacity="0.45"/><circle cx="386.5" cy="402.6" r="0.62" fill="#cfd8ff" opacity="0.89"/><circle cx="575.5" cy="311.5" r="1.10" fill="#cfd8ff" opacity="0.78"/><circle cx="985.9" cy="289.7" r="1.12" fill="#cfd8ff" opacity="0.70"/><circle cx="1028.0" cy="208.1" r="1.50" fill="#cfd8ff" opacity="0.87"/><circle cx="560.9" cy="119.4" r="0.75" fill="#cfd8ff" opacity="0.70"/><circle cx="810.4" cy="498.5" r="1.68" fill="#cfd8ff" opacity="0.37"/><circle cx="227.5" cy="134.5" r="0.68" fill="#cfd8ff" opacity="0.69"/><circle cx="1030.3" cy="467.9" r="0.78" fill="#cfd8ff" opacity="0.81"/><circle cx="376.1" cy="220.1" r="1.49" fill="#cfd8ff" opacity="0.26"/><circle cx="111.2" cy="433.6" r="0.84" fill="#cfd8ff" opacity="0.45"/><circle cx="696.4" cy="351.3" r="0.41" fill="#cfd8ff" opacity="0.43"/><circle cx="523.5" cy="252.7" r="0.72" fill="#cfd8ff" opacity="0.61"/><circle cx="1146.4" cy="203.3" r="1.22" fill="#cfd8ff" opacity="0.28"/><circle cx="329.7" cy="346.0" r="0.57" fill="#cfd8ff" opacity="0.82"/><circle cx="1090.5" cy="50.4" r="1.81" fill="#cfd8ff" opacity="0.46"/><circle cx="926.9" cy="393.8" r="0.84" fill="#cfd8ff" opacity="0.67"/><circle cx="784.9" cy="419.1" r="0.80" fill="#cfd8ff" opacity="0.73"/><circle cx="1153.6" cy="349.9" r="1.20" fill="#cfd8ff" opacity="0.28"/><circle cx="592.7" cy="183.1" r="1.48" fill="#cfd8ff" opacity="0.67"/><circle cx="679.7" cy="94.6" r="1.37" fill="#cfd8ff" opacity="0.64"/><circle cx="214.9" cy="462.8" r="1.38" fill="#cfd8ff" opacity="0.29"/><circle cx="1118.2" cy="73.5" r="0.90" fill="#cfd8ff" opacity="0.70"/><circle cx="716.9" cy="288.6" r="1.37" fill="#cfd8ff" opacity="0.52"/><circle cx="374.9" cy="91.7" r="0.50" fill="#cfd8ff" opacity="0.70"/><circle cx="905.4" cy="282.4" r="1.51" fill="#cfd8ff" opacity="0.45"/><circle cx="319.0" cy="199.4" r="1.71" fill="#cfd8ff" opacity="0.23"/><circle cx="605.7" cy="128.5" r="1.55" fill="#cfd8ff" opacity="0.45"/><circle cx="399.4" cy="209.7" r="1.21" fill="#cfd8ff" opacity="0.74"/><circle cx="423.5" cy="440.4" r="0.57" fill="#cfd8ff" opacity="0.39"/><circle cx="119.6" cy="58.6" r="1.57" fill="#cfd8ff" opacity="0.71"/><circle cx="221.8" cy="98.4" r="1.02" fill="#cfd8ff" opacity="0.72"/><circle cx="978.9" cy="389.3" r="1.29" fill="#cfd8ff" opacity="0.30"/><circle cx="478.1" cy="100.7" r="1.19" fill="#cfd8ff" opacity="0.60"/><circle cx="242.5" cy="130.1" r="1.57" fill="#cfd8ff" opacity="0.22"/><circle cx="963.8" cy="463.4" r="1.82" fill="#cfd8ff" opacity="0.47"/><circle cx="663.1" cy="303.2" r="1.35" fill="#cfd8ff" opacity="0.88"/><circle cx="824.0" cy="155.7" r="1.69" fill="#cfd8ff" opacity="0.54"/><circle cx="721.6" cy="378.0" r="0.40" fill="#cfd8ff" opacity="0.74"/><circle cx="794.3" cy="255.8" r="1.19" fill="#cfd8ff" opacity="0.52"/><circle cx="232.1" cy="275.4" r="0.46" fill="#cfd8ff" opacity="0.55"/><circle cx="775.2" cy="231.0" r="1.25" fill="#cfd8ff" opacity="0.87"/><circle cx="1070.5" cy="70.5" r="1.59" fill="#cfd8ff" opacity="0.64"/><circle cx="60.7" cy="187.1" r="0.75" fill="#cfd8ff" opacity="0.25"/><circle cx="646.7" cy="483.5" r="0.88" fill="#cfd8ff" opacity="0.81"/><circle cx="833.6" cy="69.9" r="1.69" fill="#cfd8ff" opacity="0.62"/><circle cx="1112.4" cy="372.3" r="1.51" fill="#cfd8ff" opacity="0.44"/><circle cx="968.0" cy="484.5" r="1.69" fill="#cfd8ff" opacity="0.51"/><circle cx="908.2" cy="252.2" r="0.56" fill="#cfd8ff" opacity="0.23"/><circle cx="93.5" cy="104.2" r="0.64" fill="#cfd8ff" opacity="0.55"/><circle cx="839.1" cy="279.5" r="1.03" fill="#cfd8ff" opacity="0.65"/><circle cx="365.6" cy="241.5" r="1.54" fill="#cfd8ff" opacity="0.48"/><circle cx="216.7" cy="467.7" r="1.48" fill="#cfd8ff" opacity="0.46"/><circle cx="445.2" cy="275.3" r="1.29" fill="#cfd8ff" opacity="0.36"/><circle cx="3.2" cy="108.7" r="1.57" fill="#cfd8ff" opacity="0.30"/><circle cx="552.0" cy="101.6" r="0.71" fill="#cfd8ff" opacity="0.32"/><circle cx="484.5" cy="87.5" r="0.44" fill="#cfd8ff" opacity="0.28"/><circle cx="201.9" cy="254.9" r="0.49" fill="#cfd8ff" opacity="0.22"/><circle cx="537.6" cy="212.0" r="1.46" fill="#cfd8ff" opacity="0.24"/><circle cx="484.0" cy="206.2" r="0.44" fill="#cfd8ff" opacity="0.88"/><circle cx="262.7" cy="49.0" r="1.11" fill="#cfd8ff" opacity="0.32"/><circle cx="746.9" cy="180.1" r="0.59" fill="#cfd8ff" opacity="0.24"/><circle cx="873.2" cy="143.0" r="1.58" fill="#cfd8ff" opacity="0.53"/><circle cx="1119.5" cy="156.3" r="0.77" fill="#cfd8ff" opacity="0.39"/><circle cx="977.6" cy="327.1" r="0.92" fill="#cfd8ff" opacity="0.27"/><circle cx="818.9" cy="504.0" r="1.29" fill="#cfd8ff" opacity="0.20"/><circle cx="36.4" cy="47.1" r="0.66" fill="#cfd8ff" opacity="0.23"/><circle cx="64.7" cy="340.2" r="1.75" fill="#cfd8ff" opacity="0.34"/><circle cx="1168.6" cy="248.0" r="1.61" fill="#cfd8ff" opacity="0.84"/><circle cx="1128.1" cy="17.8" r="0.86" fill="#cfd8ff" opacity="0.62"/><circle cx="1135.8" cy="45.6" r="0.84" fill="#cfd8ff" opacity="0.79"/><circle cx="137.6" cy="202.7" r="0.90" fill="#cfd8ff" opacity="0.68"/><circle cx="1114.2" cy="90.8" r="1.51" fill="#cfd8ff" opacity="0.71"/><circle cx="1002.8" cy="287.7" r="1.79" fill="#cfd8ff" opacity="0.45"/><circle cx="497.7" cy="119.3" r="1.57" fill="#cfd8ff" opacity="0.54"/><circle cx="323.3" cy="88.3" r="1.48" fill="#cfd8ff" opacity="0.62"/><circle cx="852.8" cy="201.1" r="1.13" fill="#cfd8ff" opacity="0.31"/><circle cx="852.8" cy="11.9" r="1.10" fill="#cfd8ff" opacity="0.73"/><circle cx="812.8" cy="50.5" r="0.76" fill="#cfd8ff" opacity="0.79"/><circle cx="770.9" cy="456.8" r="1.71" fill="#cfd8ff" opacity="0.51"/><circle cx="1076.3" cy="381.1" r="0.90" fill="#cfd8ff" opacity="0.46"/><circle cx="86.5" cy="207.7" r="1.83" fill="#cfd8ff" opacity="0.27"/><circle cx="682.7" cy="57.3" r="0.52" fill="#cfd8ff" opacity="0.65"/><circle cx="288.8" cy="25.4" r="0.63" fill="#cfd8ff" opacity="0.65"/><circle cx="702.7" cy="6.1" r="0.74" fill="#cfd8ff" opacity="0.88"/><circle cx="264.1" cy="292.5" r="1.03" fill="#cfd8ff" opacity="0.75"/><circle cx="725.2" cy="410.1" r="1.20" fill="#cfd8ff" opacity="0.33"/><circle cx="213.1" cy="41.1" r="1.64" fill="#cfd8ff" opacity="0.28"/><circle cx="28.8" cy="502.5" r="0.70" fill="#cfd8ff" opacity="0.83"/><circle cx="102.9" cy="241.9" r="0.73" fill="#cfd8ff" opacity="0.78"/><circle cx="738.5" cy="333.7" r="1.54" fill="#cfd8ff" opacity="0.81"/><circle cx="415.3" cy="313.6" r="1.07" fill="#cfd8ff" opacity="0.28"/><circle cx="1002.5" cy="309.1" r="1.62" fill="#cfd8ff" opacity="0.34"/><circle cx="647.0" cy="241.4" r="1.49" fill="#cfd8ff" opacity="0.25"/><circle cx="415.4" cy="252.0" r="0.51" fill="#cfd8ff" opacity="0.59"/><circle cx="882.4" cy="219.9" r="1.37" fill="#cfd8ff" opacity="0.62"/><circle cx="257.0" cy="182.3" r="1.89" fill="#cfd8ff" opacity="0.43"/><circle cx="517.0" cy="43.8" r="0.73" fill="#cfd8ff" opacity="0.32"/><circle cx="1117.1" cy="377.7" r="1.71" fill="#cfd8ff" opacity="0.89"/><circle cx="734.6" cy="484.3" r="1.20" fill="#cfd8ff" opacity="0.49"/><circle cx="1137.7" cy="469.6" r="1.82" fill="#cfd8ff" opacity="0.54"/><circle cx="928.2" cy="211.6" r="1.90" fill="#cfd8ff" opacity="0.84"/><circle cx="350.5" cy="485.8" r="0.68" fill="#cfd8ff" opacity="0.27"/><circle cx="866.8" cy="153.0" r="1.18" fill="#cfd8ff" opacity="0.65"/><circle cx="48.7" cy="387.5" r="0.81" fill="#cfd8ff" opacity="0.50"/><circle cx="413.7" cy="385.9" r="1.52" fill="#cfd8ff" opacity="0.40"/><circle cx="124.0" cy="155.7" r="1.02" fill="#cfd8ff" opacity="0.25"/><circle cx="183.9" cy="396.6" r="1.45" fill="#cfd8ff" opacity="0.88"/><circle cx="1175.6" cy="455.6" r="0.96" fill="#cfd8ff" opacity="0.31"/><circle cx="374.3" cy="240.8" r="1.19" fill="#cfd8ff" opacity="0.58"/><circle cx="431.7" cy="443.4" r="0.83" fill="#cfd8ff" opacity="0.52"/><circle cx="1064.2" cy="419.7" r="0.85" fill="#cfd8ff" opacity="0.37"/><circle cx="968.0" cy="5.2" r="0.60" fill="#cfd8ff" opacity="0.57"/><circle cx="643.0" cy="86.2" r="0.48" fill="#cfd8ff" opacity="0.34"/><circle cx="924.0" cy="242.2" r="1.87" fill="#cfd8ff" opacity="0.75"/><circle cx="1175.1" cy="18.3" r="0.68" fill="#cfd8ff" opacity="0.21"/><circle cx="518.8" cy="175.9" r="0.48" fill="#cfd8ff" opacity="0.58"/><circle cx="112.6" cy="162.0" r="0.77" fill="#cfd8ff" opacity="0.76"/><circle cx="501.9" cy="135.4" r="0.47" fill="#cfd8ff" opacity="0.50"/><circle cx="753.0" cy="351.1" r="1.77" fill="#cfd8ff" opacity="0.77"/><circle cx="296.8" cy="70.5" r="1.54" fill="#cfd8ff" opacity="0.75"/><circle cx="610.6" cy="432.1" r="1.23" fill="#cfd8ff" opacity="0.40"/><circle cx="202.5" cy="8.9" r="1.36" fill="#cfd8ff" opacity="0.83"/><circle cx="1087.4" cy="243.1" r="1.40" fill="#cfd8ff" opacity="0.85"/><circle cx="976.8" cy="313.4" r="1.02" fill="#cfd8ff" opacity="0.56"/><circle cx="204.9" cy="95.1" r="1.43" fill="#cfd8ff" opacity="0.89"/><rect width="1200" height="675" fill="url(#glow)"/><rect x="505" y="292" width="190" height="118" rx="22" fill="none" stroke="#b06bff" stroke-width="1.2" opacity="0.16"/><rect x="455" y="263" width="290" height="176" rx="20" fill="none" stroke="#b06bff" stroke-width="1.4" opacity="0.20"/><rect x="405" y="234" width="390" height="233" rx="18" fill="none" stroke="#b06bff" stroke-width="1.6" opacity="0.23"/><rect x="355" y="205" width="490" height="291" rx="16" fill="none" stroke="#b06bff" stroke-width="1.8" opacity="0.27"/><rect x="305" y="177" width="590" height="349" rx="14" fill="none" stroke="#b06bff" stroke-width="2.0" opacity="0.31"/><rect x="255" y="148" width="690" height="407" rx="12" fill="none" stroke="#b06bff" stroke-width="2.2" opacity="0.35"/><rect x="205" y="119" width="790" height="464" rx="10" fill="none" stroke="#b06bff" stroke-width="2.4" opacity="0.38"/><rect x="155" y="90" width="890" height="522" rx="8" fill="none" stroke="#b06bff" stroke-width="2.6" opacity="0.42"/><path d="M 555 321 L 100 61" stroke="#b06bff" stroke-width="1.2" opacity=".25"/><path d="M 645 321 L 1100 61" stroke="#b06bff" stroke-width="1.2" opacity=".25"/><path d="M 555 381 L 100 641" stroke="#b06bff" stroke-width="1.2" opacity=".25"/><path d="M 645 381 L 1100 641" stroke="#b06bff" stroke-width="1.2" opacity=".25"/><rect x="554.0" y="319.0" width="92" height="64" rx="8" fill="#ffffff" opacity=".07"/><rect x="554.0" y="319.0" width="92" height="64" rx="8" fill="none" stroke="#ff4d6d" stroke-width="2" opacity=".55"/><path d="M 597.0 383.0 L 591.0 345.0 L 584.0 335.0 L 592.0 331.0 L 594.0 320.0 L 606.0 320.0 L 608.0 331.0 L 617.0 336.0 L 610.0 346.0 L 604.0 383.0 Z" fill="#04020a" opacity=".96"/><path d="M 584.0 335.0 L 573.0 360.0 M 617.0 336.0 L 629.0 359.0" stroke="#04020a" stroke-width="3.4" stroke-linecap="round" opacity=".96"/><circle cx="596.5" cy="324.0" r="1.9" fill="#ff4d6d" opacity=".95"/><circle cx="603.5" cy="324.0" r="1.9" fill="#ff4d6d" opacity=".95"/><rect x="0" y="0" width="10" height="675" fill="#ff4d6d" opacity=".16"/><rect x="1190" y="0" width="10" height="675" fill="#ff4d6d" opacity=".16"/><rect width="1200" height="675" fill="url(#vig)"/><rect width="1200" height="675" fill="url(#scan)" opacity=".07"/><path d="M 28 74 L 28 28 L 74 28" fill="none" stroke="#b06bff" stroke-width="2.5" opacity=".85"/><path d="M 1172 74 L 1172 28 L 1126 28" fill="none" stroke="#b06bff" stroke-width="2.5" opacity=".85"/><path d="M 28 601 L 28 647 L 74 647" fill="none" stroke="#b06bff" stroke-width="2.5" opacity=".85"/><path d="M 1172 601 L 1172 647 L 1126 647" fill="none" stroke="#b06bff" stroke-width="2.5" opacity=".85"/><circle cx="600.0" cy="337.5" r="120" fill="none" stroke="#b06bff" stroke-width="1" opacity=".13" stroke-dasharray="6 10"/><circle cx="600.0" cy="337.5" r="190" fill="none" stroke="#b06bff" stroke-width="1" opacity=".08"/><path d="M 576.0 337.5 L 624.0 337.5 M 600.0 313.5 L 600.0 361.5" stroke="#b06bff" stroke-width="1.2" opacity=".22"/><text x="36" y="631" font-family="ui-monospace,Consolas,monospace" font-size="17" letter-spacing="3" fill="#b06bff" opacity=".9">SIG// DERELICT-9</text><text x="1164" y="58" text-anchor="end" font-family="ui-monospace,Consolas,monospace" font-size="15" letter-spacing="4" fill="#ffffff" opacity=".45">O2 14% · HULL BREACH</text><rect x="36" y="40" width="118" height="26" rx="3" fill="#b06bff" opacity=".16"/><text x="46" y="58" font-family="ui-monospace,Consolas,monospace" font-size="13" letter-spacing="2.5" fill="#b06bff">PLACEHOLDER</text></svg>